# xmcd CD database file
# Copyright (C) 1993-1996 Ti Kan
#
# Track frame offsets:
# 150
# 12810
# 23035
# 35497
# 49220
# 61885
# 74630
# 87700
# 103162
# 113455
# 123947
# 134785
# 144577
# 157252
# 169410
# 179507
# 189035
# 198310
# 206865
# 218060
# 230295
# 241542
# 251072
# 260082
# 271862
# 284620
# 295005
# 304842
# 316680
# 330087
# 340305
# 350917
#
# Disc length: 4805 seconds
#
# Revision: 0
# Processed by: cddbd v1.4b41PL1 Copyright (c) Steve Scherf et al.
# Submitted via: inCDius 1.1b5
#
DISCID=ec12c320
DTITLE=George Hamilton 4th - To You And Yours, From Me And Mine Disc3
DYEAR=1900
DGENRE=
TTITLE0=How Can You Refuse Him Now
TTITLE1=Your Cheatin' Heart
TTITLE2=Half As Much
TTITLE3=I Could Never Be Ashamed Of You
TTITLE4=I'm So Lonesome I Could Cry
TTITLE5=Cold, Cold Heart
TTITLE6=(I Heard That) Lonesome Whistle 
TTITLE7=Wedding Bells
TTITLE8=Who's Taking You To The Prom
TTITLE9=I Know Where I'm Goin'
TTITLE10=You Win Again
TTITLE11=Take Thesee Chains From My Heart
TTITLE12=So Soon
TTITLE13=When Will I Know
TTITLE14=Lucy, Lucy
TTITLE15=House A Car And A Wedding Ring
TTITLE16=The Two Of Us
TTITLE17=The Steady Game
TTITLE18=Last Night We Fell In Love
TTITLE19=Can You Blame Us
TTITLE20=Love Has ComeTo Our House
TTITLE21=Gee
TTITLE22=One Little Acre
TTITLE23=I Know Your Sweetheart
TTITLE24=Tremble
TTITLE25=Why I'm Walkin'
TTITLE26=Loneliness Is All Around Me
TTITLE27=Before This Day Ends
TTITLE28=The Wrong Side Of The Tracks
TTITLE29=It's Just The Idea
TTITLE30=A Walk On The Wild Side Of Life
TTITLE31=That's How It Goes
EXTD=
EXTT0=
EXTT1=
EXTT2=
EXTT3=
EXTT4=
EXTT5=
EXTT6=
EXTT7=
EXTT8=
EXTT9=
EXTT10=
EXTT11=
EXTT12=
EXTT13=
EXTT14=
EXTT15=
EXTT16=
EXTT17=
EXTT18=
EXTT19=
EXTT20=
EXTT21=
EXTT22=
EXTT23=
EXTT24=
EXTT25=
EXTT26=
EXTT27=
EXTT28=
EXTT29=
EXTT30=
EXTT31=
PLAYORDER=
